<?xml version="1.0" encoding="UTF-8"?><svg id="Layer_1" xmlns="http://www.w3.org/2000/svg" viewBox="0 0 380 336.4"><defs><style>.cls-1{fill:#f9fafb;}.cls-2{fill:#fcc00d;}.cls-3{fill:#6c757d;}</style></defs><path class="cls-3" d="m310.58,229.55h-10.58c-5.52,0-10-4.48-10-10.01,0-5.52,4.48-10,10-10h10.54c27.28-.29,49.46-22.69,49.46-49.95s-22.44-49.99-50.02-49.99c-1.18,0-2.44.08-3.52.15-2.65.19-5.27-.7-7.28-2.45s-3.23-4.23-3.4-6.89c-2.89-45.1-40.6-80.42-85.84-80.42-30.34,0-57.86,15.51-73.61,41.49-1.59,2.63-4.31,4.38-7.37,4.74-3.05.36-6.11-.7-8.27-2.88-5.22-5.25-12.17-8.14-19.58-8.14-15.22,0-27.61,12.39-27.61,27.61,0,4.34.99,8.51,2.93,12.37,1.53,3.04,1.41,6.64-.32,9.57-1.73,2.93-4.82,4.78-8.22,4.91-26.86,1.06-47.9,22.97-47.9,49.87s22.3,49.91,49.72,49.91h10.28c5.52,0,10,4.48,10,10s-4.48,10-10,10h-10.28C31.27,229.46,0,198.1,0,159.55c0-33.28,22.99-61.09,54.28-68.17-.51-2.8-.76-5.66-.76-8.56,0-26.25,21.36-47.61,47.61-47.61,8.72,0,17.08,2.33,24.37,6.69C145.48,15.48,176.31,0,209.96,0c52.58,0,96.91,38.73,104.78,89.77,36.4,2.45,65.27,32.83,65.27,69.83s-31.1,69.58-69.32,69.95c-.03,0-.07,0-.1,0Z"/><path class="cls-2" d="m96.03,323.55c-2.56,0-5.11-.97-7.07-2.92-3.91-3.9-3.91-10.23-.01-14.14l42.96-43.02h-25.88c-4.09,0-7.77-2.49-9.29-6.29-1.52-3.8-.57-8.14,2.4-10.96l63-59.83c4-3.8,10.33-3.64,14.14.37,3.8,4,3.64,10.33-.36,14.14l-44.83,42.58h24.95c4.04,0,7.69,2.43,9.24,6.17,1.55,3.74.7,8.04-2.16,10.9l-60,60.08c-1.95,1.96-4.51,2.93-7.08,2.93Z"/><path class="cls-2" d="m197.96,288.4c-2.56,0-5.12-.98-7.07-2.93-3.9-3.91-3.9-10.24,0-14.14l42.91-42.87h-25.84c-4.09,0-7.76-2.49-9.28-6.28-1.52-3.79-.58-8.13,2.38-10.95l63-60.12c4-3.81,10.33-3.67,14.14.33,3.81,4,3.67,10.33-.33,14.14l-44.94,42.89h25.04c4.05,0,7.69,2.44,9.24,6.18,1.55,3.74.69,8.04-2.17,10.9l-60,59.94c-1.95,1.95-4.51,2.93-7.07,2.93Z"/><path class="cls-1" d="m146.96,336.4c-2.56,0-5.12-.98-7.07-2.93-3.9-3.91-3.9-10.24,0-14.14l25.04-25.02c3.91-3.9,10.24-3.9,14.14,0s3.9,10.24,0,14.14l-25.04,25.02c-1.95,1.95-4.51,2.93-7.07,2.93Z"/><path class="cls-1" d="m55.96,303.4c-2.56,0-5.12-.98-7.07-2.93-3.9-3.91-3.9-10.24,0-14.14l15.79-15.78c3.91-3.9,10.24-3.9,14.14,0,3.9,3.91,3.9,10.24,0,14.14l-15.79,15.78c-1.95,1.95-4.51,2.93-7.07,2.93Z"/><path class="cls-1" d="m234.96,317.4c-2.56,0-5.12-.98-7.07-2.93-3.9-3.91-3.9-10.24,0-14.14l51.99-51.94c3.91-3.9,10.24-3.9,14.14,0s3.9,10.24,0,14.14l-51.99,51.94c-1.95,1.95-4.51,2.93-7.07,2.93Z"/></svg>