<?xml version="1.0" encoding="UTF-8"?><svg id="Layer_1" xmlns="http://www.w3.org/2000/svg" viewBox="0 0 459.75 420"><defs><style>.cls-1{fill:#f9fafb;}.cls-2{fill:#fcc00d;}</style></defs><path class="cls-2" d="m326.55,270c-2.91,0-5.79-1.26-7.77-3.7-3.48-4.29-2.83-10.58,1.46-14.07,18.82-15.28,29.61-37.93,29.61-62.14,0-44.11-35.89-80-80-80-40.8,0-74.98,30.53-79.5,71.01-.61,5.49-5.56,9.44-11.05,8.83-5.49-.61-9.44-5.56-8.83-11.05,5.65-50.62,48.37-88.79,99.38-88.79,55.14,0,100,44.86,100,100,0,30.26-13.49,58.57-37,77.67-1.85,1.51-4.08,2.24-6.3,2.24Z"/><path class="cls-2" d="m269.75,74c-5.52,0-10-4.48-10-10V10c0-5.52,4.48-10,10-10s10,4.48,10,10v54c0,5.52-4.48,10-10,10Z"/><path class="cls-2" d="m143.75,200h-54c-5.52,0-10-4.48-10-10s4.48-10,10-10h54c5.52,0,10,4.48,10,10s-4.48,10-10,10Z"/><path class="cls-2" d="m449.75,200h-54c-5.52,0-10-4.48-10-10s4.48-10,10-10h54c5.52,0,10,4.48,10,10s-4.48,10-10,10Z"/><path class="cls-2" d="m358.29,111.46c-2.56,0-5.12-.98-7.07-2.93-3.91-3.91-3.91-10.24,0-14.14l38.74-38.74c3.91-3.91,10.24-3.91,14.14,0,3.91,3.91,3.91,10.24,0,14.14l-38.74,38.74c-1.95,1.95-4.51,2.93-7.07,2.93Z"/><path class="cls-2" d="m181.21,111.46c-2.56,0-5.12-.98-7.07-2.93l-38.74-38.74c-3.9-3.91-3.9-10.24,0-14.14,3.91-3.91,10.24-3.91,14.14,0l38.74,38.74c3.9,3.91,3.9,10.24,0,14.14-1.95,1.95-4.51,2.93-7.07,2.93Z"/><path class="cls-2" d="m397.03,327.28c-2.56,0-5.12-.98-7.07-2.93l-38.74-38.74c-3.91-3.91-3.91-10.24,0-14.14,3.91-3.91,10.24-3.91,14.14,0l38.74,38.74c3.91,3.91,3.91,10.24,0,14.14-1.95,1.95-4.51,2.93-7.07,2.93Z"/><path class="cls-1" d="m69.72,420c-38.47-.25-69.72-31.66-69.72-70.01,0-33.32,22.99-61.18,54.28-68.26-.51-2.8-.76-5.66-.76-8.56,0-26.25,21.36-47.61,47.61-47.61,8.72,0,17.08,2.33,24.37,6.69,19.98-26.42,50.81-41.9,84.46-41.9,52.59,0,96.92,38.74,104.78,89.78,36.4,2.45,65.26,32.85,65.26,69.86s-31.1,69.62-69.32,70H69.72Zm31.41-174.43c-15.22,0-27.61,12.39-27.61,27.61,0,4.34.99,8.51,2.93,12.37,1.53,3.04,1.41,6.64-.32,9.57-1.73,2.93-4.82,4.78-8.22,4.91-26.86,1.06-47.9,23.01-47.9,49.96s22.33,49.83,49.78,50.01h240.8c27.2-.27,49.42-22.7,49.42-50.01s-22.44-50.02-50.02-50.02c-1.03,0-2.14.04-3.51.14-2.65.18-5.27-.7-7.28-2.45-2-1.75-3.23-4.23-3.4-6.89-2.89-45.1-40.6-80.43-85.84-80.43-30.34,0-57.86,15.51-73.61,41.49-1.59,2.63-4.31,4.38-7.37,4.74-3.05.36-6.11-.7-8.27-2.88-5.22-5.25-12.17-8.14-19.58-8.14Z"/></svg>