<?xml version="1.0" encoding="UTF-8"?><svg id="Layer_1" xmlns="http://www.w3.org/2000/svg" viewBox="0 0 380 383.46"><defs><style>.cls-1{fill:#f9fafb;}.cls-2{fill:#6c757d;}</style></defs><path class="cls-2" d="m310.58,229.55h-10.58s-230.28-.09-230.28-.09C31.27,229.46,0,198.1,0,159.55c0-33.28,22.99-61.09,54.28-68.17-.51-2.8-.76-5.66-.76-8.56,0-26.25,21.36-47.61,47.61-47.61,8.72,0,17.08,2.33,24.37,6.69C145.48,15.48,176.31,0,209.96,0c52.58,0,96.91,38.73,104.78,89.77,36.4,2.45,65.27,32.83,65.27,69.83s-31.1,69.58-69.32,69.95c-.03,0-.07,0-.1,0Zm-10.58-20h10.53c27.28-.29,49.47-22.69,49.47-49.95s-22.44-49.99-50.02-49.99c-1.18,0-2.44.08-3.51.15-2.64.18-5.27-.7-7.28-2.45-2-1.75-3.23-4.23-3.4-6.89-2.89-45.1-40.6-80.42-85.84-80.42-30.34,0-57.86,15.51-73.61,41.49-1.59,2.63-4.31,4.38-7.37,4.74-3.05.36-6.11-.7-8.27-2.88-5.22-5.25-12.17-8.14-19.58-8.14-15.22,0-27.61,12.39-27.61,27.61,0,4.34.99,8.51,2.93,12.37,1.53,3.04,1.41,6.64-.32,9.57-1.73,2.93-4.82,4.78-8.22,4.91-26.86,1.06-47.9,22.97-47.9,49.87s22.3,49.91,49.72,49.91h10.28l220,.09Z"/><path class="cls-1" d="m94,364.52c-2.56,0-5.12-.98-7.07-2.93-3.9-3.91-3.9-10.24,0-14.14l61.9-61.84c3.91-3.9,10.24-3.9,14.14,0s3.9,10.24,0,14.14l-61.9,61.84c-1.95,1.95-4.51,2.93-7.07,2.93Z"/><path class="cls-1" d="m155.87,364.55c-2.56,0-5.12-.98-7.07-2.93l-61.84-61.9c-3.9-3.91-3.9-10.24,0-14.14,3.91-3.9,10.24-3.9,14.14,0l61.84,61.9c3.9,3.91,3.9,10.24,0,14.14-1.95,1.95-4.51,2.93-7.07,2.93Z"/><path class="cls-1" d="m174.95,333.46h0l-100,.03c-5.52,0-10-4.5-10-10.02,0-5.52,4.48-10.01,10-10.01h0l100,.1c5.52,0,10,4.43,10,9.95,0,5.52-4.48,9.94-10,9.94Z"/><path class="cls-1" d="m124.93,383.46h0c-5.52,0-10-4.42-10-9.94l.05-100.03c0-5.52,4.48-10.03,10-10.03h0c5.52,0,10,4.55,10,10.07l-.05,99.97c0,5.52-4.48,9.96-10,9.96Z"/><path class="cls-1" d="m232.71,320.2c-3.45,0-6.8-1.78-8.65-4.97-2.78-4.77-1.16-10.89,3.62-13.67l60.51-35.2c4.77-2.78,10.9-1.16,13.67,3.62,2.78,4.77,1.16,10.89-3.62,13.67l-60.51,35.2c-1.58.92-3.31,1.36-5.02,1.36Z"/><path class="cls-1" d="m293.71,319.29c-1.61,0-3.25-.39-4.76-1.21l-61.52-33.39c-4.85-2.63-6.65-8.71-4.02-13.56,2.63-4.85,8.7-6.65,13.56-4.02l61.52,33.39c4.85,2.63,6.65,8.71,4.02,13.56-1.81,3.34-5.25,5.23-8.8,5.23Z"/><path class="cls-1" d="m262.94,337.46h0c-5.52,0-10-4.71-10-10.23l.04-68.8c0-5.52,4.48-9.97,10-9.97h0c5.52,0,10,4.34,10,9.87l-.04,68.98c0,5.52-4.48,10.15-10,10.15Z"/></svg>