<?xml version="1.0" encoding="UTF-8"?><svg id="Layer_1" xmlns="http://www.w3.org/2000/svg" viewBox="0 0 350.37 246.86"><defs><style>.cls-1{fill:#f9fafb;}</style></defs><path class="cls-1" d="m289.37,135.03H36.29C16.62,135.03,0,118.1,0,98.05s16.25-36.99,36.23-36.99,36.2,16.48,36.2,36.75c0,5.52-4.48,10-10,10s-10-4.48-10-10c0-9.08-7.42-16.75-16.2-16.75s-16.23,7.78-16.23,16.99,7.46,16.99,16.29,16.99h253.08c5.52,0,10,4.48,10,10s-4.48,10-10,10Z"/><path class="cls-1" d="m340.37,92.03h-204.86c-25.13,0-45.57-20.64-45.57-46.02S110.29,0,135.3,0s45.26,20.56,45.26,45.83c0,5.52-4.48,10-10,10s-10-4.48-10-10c0-14.24-11.33-25.83-25.26-25.83s-25.36,11.67-25.36,26.02,11.71,26.02,25.57,26.02h204.86c5.52,0,10,4.48,10,10s-4.48,10-10,10Z"/><path class="cls-1" d="m68.74,246.86c-12.14,0-23.52-4.61-32.05-12.97-8.62-8.45-13.36-19.79-13.36-31.94,0-24.76,20.42-44.91,45.51-44.91h249.53c5.52,0,10,4.48,10,10s-4.48,10-10,10H68.84c-14.31,0-25.51,10.94-25.51,24.91s11.16,24.91,25.41,24.91,25.36-11.02,25.36-25.1c0-5.52,4.48-10,10-10s10,4.48,10,10c0,24.87-20.35,45.1-45.36,45.1Z"/></svg>