<?xml version="1.0" encoding="UTF-8"?><svg id="Layer_1" xmlns="http://www.w3.org/2000/svg" viewBox="0 0 414.75 471.92"><defs><style>.cls-1{fill:#f9fafb;}.cls-2{fill:#fcc00d;}.cls-3{fill:#6c757d;}</style></defs><path class="cls-2" d="m301.02,232.6c-2.52,0-5.03-.99-6.89-2.96-3.61-3.81-3.45-9.82.35-13.43,14.49-13.75,22.47-32.31,22.47-52.27,0-39.72-32.32-72.04-72.04-72.04-34.89,0-64.7,24.87-70.89,59.14-.93,5.16-5.88,8.59-11.04,7.66-5.16-.93-8.59-5.87-7.66-11.04,7.82-43.32,45.5-74.77,89.59-74.77,50.2,0,91.04,40.84,91.04,91.04,0,25.23-10.08,48.69-28.39,66.06-1.84,1.74-4.19,2.61-6.54,2.61Z"/><path class="cls-2" d="m216.76,64.92c-4.37,0-8.3-3.03-9.27-7.48l-10.02-45.92c-1.12-5.13,2.13-10.19,7.26-11.31,5.14-1.12,10.19,2.13,11.31,7.26l10.02,45.92c1.12,5.13-2.13,10.19-7.26,11.31-.68.15-1.36.22-2.03.22Z"/><path class="cls-2" d="m356.39,153.7c-4.37,0-8.3-3.03-9.27-7.48-1.12-5.13,2.13-10.19,7.26-11.31l48.85-10.66c5.14-1.12,10.19,2.13,11.31,7.26,1.12,5.13-2.13,10.19-7.26,11.31l-48.85,10.66c-.68.15-1.36.22-2.03.22Z"/><path class="cls-2" d="m305.26,80.95c-1.76,0-3.53-.49-5.12-1.51-4.42-2.83-5.7-8.71-2.86-13.13l26.81-41.77c2.83-4.42,8.71-5.7,13.13-2.86,4.42,2.83,5.7,8.71,2.86,13.13l-26.81,41.77c-1.81,2.83-4.88,4.37-8,4.37Z"/><path class="cls-2" d="m148.52,115.15c-1.76,0-3.53-.49-5.12-1.51l-41.77-26.81c-4.42-2.83-5.7-8.71-2.86-13.13s8.71-5.7,13.13-2.86l41.77,26.81c4.42,2.83,5.7,8.71,2.86,13.13-1.81,2.83-4.88,4.37-8,4.37Z"/><path class="cls-2" d="m380.25,264.72c-1.76,0-3.53-.49-5.12-1.51l-41.77-26.81c-4.42-2.83-5.7-8.71-2.86-13.13s8.71-5.7,13.13-2.86l41.77,26.81c4.42,2.83,5.7,8.71,2.86,13.13-1.81,2.83-4.88,4.37-8,4.37Z"/><path class="cls-3" d="m63.6,372.66c-35.1-.23-63.6-28.88-63.6-63.86,0-30.26,20.77-55.57,49.11-62.18-.42-2.43-.63-4.9-.63-7.42,0-24.03,19.55-43.57,43.57-43.57,7.85,0,15.37,2.06,21.96,5.92,18.19-23.86,46.14-37.82,76.63-37.82,47.74,0,88.01,35.08,95.31,81.37,33.04,2.41,59.19,30.06,59.19,63.7s-28.37,63.52-63.24,63.86H63.6Zm28.46-158.03c-13.55,0-24.57,11.02-24.57,24.57,0,3.87.88,7.57,2.61,11.01,1.45,2.89,1.34,6.31-.3,9.09-1.64,2.78-4.58,4.54-7.81,4.67-24.1.95-42.98,20.64-42.98,44.83s20.04,44.7,44.67,44.86h218.16c24.4-.25,44.33-20.37,44.33-44.86s-20.13-44.87-44.87-44.87c-.93,0-1.93.04-3.16.12-2.53.18-5.01-.66-6.91-2.33-1.9-1.66-3.06-4.02-3.23-6.54-2.61-40.63-36.57-72.45-77.33-72.45-27.33,0-52.12,13.97-66.32,37.37-1.52,2.5-4.1,4.16-7,4.51-2.9.34-5.8-.66-7.86-2.73-4.65-4.67-10.84-7.25-17.42-7.25Z"/><path class="cls-1" d="m146.94,471.92c-2.43,0-4.87-.93-6.72-2.79-3.71-3.71-3.71-9.73,0-13.44l22.69-22.66c3.71-3.71,9.73-3.71,13.43,0,3.71,3.71,3.71,9.73,0,13.44l-22.69,22.66c-1.85,1.85-4.28,2.78-6.71,2.78Z"/><path class="cls-1" d="m68.12,420.28c-2.43,0-4.87-.93-6.72-2.79-3.71-3.71-3.71-9.73,0-13.44l14.31-14.29c3.71-3.71,9.73-3.7,13.43,0,3.71,3.71,3.71,9.73,0,13.44l-14.31,14.29c-1.85,1.85-4.28,2.78-6.71,2.78Z"/><path class="cls-1" d="m194.06,420.28c-2.43,0-4.87-.93-6.72-2.79-3.71-3.71-3.71-9.73,0-13.44l14.31-14.29c3.71-3.71,9.73-3.71,13.43,0s3.71,9.73,0,13.44l-14.31,14.29c-1.85,1.85-4.28,2.78-6.71,2.78Z"/><path class="cls-1" d="m234.83,443.08c-2.43,0-4.87-.93-6.72-2.79-3.71-3.71-3.7-9.73,0-13.44l37.14-37.09c3.71-3.71,9.73-3.7,13.43,0,3.71,3.71,3.7,9.73,0,13.44l-37.14,37.09c-1.85,1.85-4.28,2.78-6.71,2.78Z"/><path class="cls-1" d="m98.02,453.04c-2.43,0-4.87-.93-6.72-2.79-3.71-3.71-3.71-9.73,0-13.44l47.1-47.06c3.71-3.71,9.73-3.7,13.43,0,3.71,3.71,3.71,9.73,0,13.44l-47.1,47.06c-1.85,1.85-4.28,2.78-6.71,2.78Z"/></svg>