<?xml version="1.0" encoding="UTF-8"?><svg id="Layer_1" xmlns="http://www.w3.org/2000/svg" viewBox="0 0 380 314.46"><defs><style>.cls-1{fill:#f9fafb;}</style></defs><path class="cls-1" d="m310.58,229.55h-10.58s-230.28-.09-230.28-.09C31.27,229.46,0,198.1,0,159.55c0-33.28,22.99-61.09,54.28-68.17-.51-2.8-.76-5.66-.76-8.56,0-26.25,21.36-47.61,47.61-47.61,8.72,0,17.08,2.33,24.37,6.69C145.48,15.48,176.31,0,209.96,0c52.58,0,96.91,38.73,104.78,89.77,36.4,2.45,65.27,32.83,65.27,69.83s-31.1,69.58-69.32,69.95c-.03,0-.07,0-.1,0Zm-10.58-20h10.53c27.28-.29,49.46-22.69,49.46-49.95s-22.44-49.99-50.02-49.99c-1.19,0-2.44.08-3.52.15-2.65.19-5.27-.7-7.28-2.45-2-1.75-3.23-4.23-3.4-6.89-2.89-45.1-40.6-80.42-85.84-80.42-30.34,0-57.86,15.51-73.61,41.49-1.59,2.63-4.31,4.38-7.37,4.74-3.05.36-6.11-.7-8.27-2.88-5.22-5.25-12.17-8.14-19.58-8.14-15.22,0-27.61,12.39-27.61,27.61,0,4.34.99,8.51,2.93,12.37,1.53,3.04,1.41,6.64-.32,9.57-1.73,2.93-4.82,4.78-8.22,4.91-26.86,1.06-47.9,22.97-47.9,49.87s22.3,49.91,49.72,49.91h10.28l220,.09Z"/><path class="cls-1" d="m287.62,314.46h0l-56.38-.02c-5.52,0-10-4.47-9.99-9.99,0-5.52,4.48-9.98,10-9.98h0l56.38.03c5.52,0,10,4.47,9.99,9.99,0,5.52-4.48,9.98-10,9.98Z"/><path class="cls-1" d="m192.25,314.46h0l-99.42-.02c-5.52,0-10-4.47-10-9.99,0-5.52,4.48-9.98,10-9.98h0l99.42.03c5.52,0,10,4.46,10,9.99,0,5.52-4.48,9.98-10,9.98Z"/><path class="cls-1" d="m310.88,272.46h0l-129.54-.02c-5.52,0-10-4.47-10-9.99,0-5.52,4.48-9.99,10-9.99h0l129.54.03c5.52,0,10,4.46,10,9.99,0,5.52-4.48,9.98-10,9.98Z"/><path class="cls-1" d="m143.88,272.46h0l-71.54-.02c-5.52,0-10-4.47-9.99-9.99,0-5.52,4.48-9.98,10-9.98h0l71.54.03c5.52,0,10,4.47,9.99,9.99,0,5.52-4.48,9.98-10,9.98Z"/></svg>